# File created by Blade
# Date/Time:  Tue Sep 30 19:15:20 2014
#---------------------------------------------------------
:version 1.10
:name HOM
:units
  mass 1.0
  length 1.000000
  angle deg
:documentation
     Acclaim Skeleton File
:root
   axis xyz
   order TX TY TZ RX RY RZ
   position 0.000000 0.000000 0.000000
   orientation 0 0 0
:bonedata
   begin
      id 1
      name Spine_dum
      direction 0.000000 1.000000 0.000000
      length 7.508935
      axis 0.0 0.0 0.0 xyz
   end
   begin
      id 2
      name LeftUpLeg_dum
      direction 1.000000 0.000000 0.000000
      length 3.000554
      axis 0.0 0.0 0.0 xyz
   end
   begin
      id 3
      name RightUpLeg_dum
      direction -1.000000 0.000000 0.000000
      length 3.000554
      axis 0.0 0.0 0.0 xyz
   end
   begin
      id 4
      name Spine
      direction 0.000000 1.000000 0.000000
      length 0.000000
      axis 0.0 0.0 0.0 xyz
      dof rx ry rz
   end
   begin
      id 5
      name Spine_dum1
      direction 0.000000 1.000000 0.000000
      length 13.861122
      axis 0.0 0.0 0.0 xyz
   end
   begin
      id 6
      name Spine_dum2
      direction 0.000000 1.000000 0.000000
      length 8.204763
      axis 0.0 0.0 0.0 xyz
   end
   begin
      id 7
      name Spine_dum3
      direction 0.000000 1.000000 0.000000
      length 8.204763
      axis 0.0 0.0 0.0 xyz
   end
   begin
      id 8
      name Head
      direction 0.000000 1.000000 0.000000
      length 4.527541
      axis 0.0 0.0 0.0 xyz
      dof rx ry rz
   end
   begin
      id 9
      name LeftShoulder
      direction 1.000000 0.000000 0.000000
      length 6.635947
      axis 0.0 0.0 0.0 xyz
      dof rx ry rz
   end
   begin
      id 10
      name LeftArm
      direction 1.000000 0.000000 0.000000
      length 10.274200
      axis 0.0 0.0 0.0 xyz
      dof rx ry rz
   end
   begin
      id 11
      name LeftForeArm
      direction 1.000000 0.000000 0.000000
      length 8.522133
      axis 0.0 0.0 0.0 xyz
      dof ry rz rx
   end
   begin
      id 12
      name LeftHand
      direction 0.000000 0.000000 0.000000
      length 0.000000
      axis 0.0 0.0 0.0 xyz
      dof rx ry rz
   end
   begin
      id 13
      name LeftHand_dum1
      direction 0.000000 0.000000 0.000000
      length 0.000000
      axis 0.0 0.0 0.0 xyz
   end
   begin
      id 14
      name LeftHand_dum2
      direction 1.000000 0.000000 0.000000
      length 3.936992
      axis 0.0 0.0 0.0 xyz
   end
   begin
      id 15
      name LeftHandThumb1
      direction 0.000000 0.000000 1.000000
      length 3.936992
      axis 0.0 0.0 0.0 xyz
      dof rx rz ry
   end
   begin
      id 16
      name RightShoulder
      direction -1.000000 0.000000 0.000000
      length 6.635947
      axis 0.0 0.0 0.0 xyz
      dof rx ry rz
   end
   begin
      id 17
      name RightArm
      direction -1.000000 0.000000 0.000000
      length 10.274200
      axis 0.0 0.0 0.0 xyz
      dof rx ry rz
   end
   begin
      id 18
      name RightForeArm
      direction -1.000000 0.000000 0.000000
      length 8.522133
      axis 0.0 0.0 0.0 xyz
      dof ry rz rx
   end
   begin
      id 19
      name RightHand
      direction 0.000000 0.000000 0.000000
      length 0.000000
      axis 0.0 0.0 0.0 xyz
      dof rx ry rz
   end
   begin
      id 20
      name RightHand_dum1
      direction 0.000000 0.000000 0.000000
      length 0.000000
      axis 0.0 0.0 0.0 xyz
   end
   begin
      id 21
      name RightHand_dum2
      direction -1.000000 0.000000 0.000000
      length 3.936992
      axis 0.0 0.0 0.0 xyz
   end
   begin
      id 22
      name RightHandThumb1
      direction 0.000000 0.000000 1.000000
      length 3.936992
      axis 0.0 0.0 0.0 xyz
      dof rx rz ry
   end
   begin
      id 23
      name LeftUpLeg
      direction 0.000000 -1.000000 0.000000
      length 16.490817
      axis 0.0 0.0 0.0 xyz
      dof rx ry rz
   end
   begin
      id 24
      name LeftLeg
      direction 0.000000 -1.000000 0.000000
      length 14.556551
      axis 0.0 0.0 0.0 xyz
      dof rx ry rz
   end
   begin
      id 25
      name LeftFoot
      direction 0.000000 -0.258818 0.965926
      length 4.831105
      axis 0.0 0.0 0.0 xyz
      dof rx ry rz
   end
   begin
      id 26
      name LeftToeBase
      direction 0.000000 0.000000 1.000000
      length 2.952744
      axis 0.0 0.0 0.0 xyz
      dof rx ry rz
   end
   begin
      id 27
      name RightUpLeg
      direction 0.000000 -1.000000 0.000000
      length 16.490817
      axis 0.0 0.0 0.0 xyz
      dof rx ry rz
   end
   begin
      id 28
      name RightLeg
      direction 0.000000 -1.000000 0.000000
      length 14.556551
      axis 0.0 0.0 0.0 xyz
      dof rx ry rz
   end
   begin
      id 29
      name RightFoot
      direction 0.000000 -0.258818 0.965926
      length 4.831105
      axis 0.0 0.0 0.0 xyz
      dof rx ry rz
   end
   begin
      id 30
      name RightToeBase
      direction 0.000000 0.000000 1.000000
      length 2.952744
      axis 0.0 0.0 0.0 xyz
      dof rx ry rz
   end
:hierarchy
   begin
      root Spine_dum LeftUpLeg_dum RightUpLeg_dum
      Spine_dum Spine
      LeftUpLeg_dum LeftUpLeg
      RightUpLeg_dum RightUpLeg
      Spine Spine_dum1 Spine_dum2 Spine_dum3
      Spine_dum1 Head
      Spine_dum2 LeftShoulder
      Spine_dum3 RightShoulder
      LeftShoulder LeftArm
      LeftArm LeftForeArm
      LeftForeArm LeftHand
      LeftHand LeftHand_dum1 LeftHand_dum2
      LeftHand_dum1 LeftHandThumb1
      RightShoulder RightArm
      RightArm RightForeArm
      RightForeArm RightHand
      RightHand RightHand_dum1 RightHand_dum2
      RightHand_dum1 RightHandThumb1
      LeftUpLeg LeftLeg
      LeftLeg LeftFoot
      LeftFoot LeftToeBase
      RightUpLeg RightLeg
      RightLeg RightFoot
      RightFoot RightToeBase
   end

# File created by Blade
# Date/Time:  Tue Sep 30 19:15:05 2014
# Frame Rate: 120.000 fps
#------------------------------------------------------
:FULLY-SPECIFIED
:DEGREES
1
root -4.885990 32.828032 -1.968896 11.674077 -0.336113 -0.673421
Spine -9.000254 4.984472 1.633112
Head -13.049636 -0.752224 10.732432
LeftShoulder 17.157639 16.122688 28.826806
LeftArm -43.638431 -10.859542 -29.955483
LeftForeArm -29.865144 -5.885624 -10.125090
LeftHand -0.000011 17.738116 -2.704812
LeftHandThumb1 30.357831 13.997178 22.438692
RightShoulder -14.123020 -22.464933 -34.123250
RightArm -2.739718 -8.175630 30.960134
RightForeArm 13.857035 -9.210181 32.977313
RightHand -0.000035 -12.390497 11.742719
RightHandThumb1 30.482666 -12.916435 -20.793814
LeftUpLeg -7.917144 4.249475 -1.520368
LeftLeg 0.795300 -0.000000 -0.000000
LeftFoot -11.722430 10.935538 -9.776131
LeftToeBase 7.428900 0.000000 0.000000
RightUpLeg -9.424616 -9.324014 1.933560
RightLeg 4.085000 -0.000000 -0.000000
RightFoot -9.893037 -4.143957 -7.223236
RightToeBase -0.615200 -0.000000 -0.000000
2
root -4.869490 32.827434 -1.974196 11.704482 -0.281325 -0.653851
Spine -9.037447 5.040065 1.602467
Head -13.033566 -0.842936 10.760797
LeftShoulder 17.202084 16.105214 28.658172
LeftArm -44.189388 -10.729813 -30.392603
LeftForeArm -31.421224 -6.196750 -10.020268
LeftHand 0.000020 18.046049 -1.997917
LeftHandThumb1 30.357831 13.997178 22.438692
RightShoulder -14.069642 -22.463508 -34.094279
RightArm -2.575685 -8.342262 31.170878
RightForeArm 13.985440 -9.326055 33.050513
RightHand -0.000001 -12.264850 11.663201
RightHandThumb1 30.482666 -12.916435 -20.793814
LeftUpLeg -7.978822 4.227042 -1.566447
LeftLeg 0.828800 -0.000000 -0.000000
LeftFoot -11.727924 10.898247 -9.691090
LeftToeBase 7.513600 -0.000000 -0.000000
RightUpLeg -9.473813 -9.384362 1.901597
RightLeg 4.111400 -0.000000 0.000000
RightFoot -9.903762 -4.147317 -7.188286
RightToeBase -0.642000 -0.000000 -0.000000
3
root -4.854590 32.827033 -1.980096 11.734575 -0.207196 -0.643376
Spine -9.080429 5.043662 1.587294
Head -12.992498 -0.900041 10.792413
LeftShoulder 17.269123 16.056833 28.454786
LeftArm -44.770600 -10.527522 -30.797239
LeftForeArm -33.076292 -6.369865 -9.667268
LeftHand 0.000006 18.423716 -1.402370
LeftHandThumb1 30.357831 13.997178 22.438692
RightShoulder -14.032890 -22.428852 -33.968089
RightArm -2.469400 -8.406192 31.300205
RightForeArm 14.046464 -9.360945 33.028736
RightHand 0.000033 -12.281452 11.588760
RightHandThumb1 30.482666 -12.916435 -20.793814
LeftUpLeg -8.037448 4.165142 -1.596085
LeftLeg 0.839700 -0.000000 -0.000000
LeftFoot -11.699664 10.914147 -9.634056
LeftToeBase 7.492000 -0.000000 -0.000000
RightUpLeg -9.517794 -9.432739 1.879581
RightLeg 4.131200 -0.000000 -0.000000
RightFoot -9.921521 -4.171121 -7.159527
RightToeBase -0.604300 -0.000000 -0.000000
4
root -4.837490 32.826335 -1.985696 11.768064 -0.131902 -0.632899
Spine -9.123901 5.052912 1.562059
Head -12.996927 -0.988914 10.819047
LeftShoulder 17.439746 16.105893 28.264820
LeftArm -45.355360 -10.506381 -31.188503
LeftForeArm -34.793545 -6.466837 -9.206974
LeftHand -0.000035 18.775503 -0.821734
LeftHandThumb1 30.357831 13.997178 22.438692
RightShoulder -14.011710 -22.403289 -33.871336
RightArm -2.386894 -8.544214 31.510246
RightForeArm 14.157470 -9.471506 33.118787
RightHand -0.000031 -12.185276 11.602279
RightHandThumb1 30.482666 -12.916435 -20.793814
LeftUpLeg -8.095790 4.129185 -1.632554
LeftLeg 0.854100 -0.000000 -0.000000
LeftFoot -11.680751 10.873032 -9.610726
LeftToeBase 7.418800 -0.000000 0.000000
RightUpLeg -9.565037 -9.469563 1.854687
RightLeg 4.151400 0.000000 0.000000
RightFoot -9.931869 -4.216036 -7.115910
RightToeBase -0.570800 -0.000000 0.000000
5
root -4.822590 32.826533 -1.993796 11.812854 -0.087878 -0.642800
Spine -9.177513 5.117864 1.542751
Head -12.988546 -1.104465 10.863307
LeftShoulder 17.443942 16.052255 28.073647
LeftArm -45.826154 -10.305317 -31.648499
LeftForeArm -36.562522 -6.645139 -8.868346
LeftHand -0.000011 19.281918 -0.370204
LeftHandThumb1 30.357831 13.997178 22.438692
RightShoulder -13.981211 -22.396397 -33.759148
RightArm -2.228924 -8.674586 31.722280
RightForeArm 14.296693 -9.597215 33.193900
RightHand 0.000031 -12.341036 11.525127
RightHandThumb1 30.482666 -12.916435 -20.793814
LeftUpLeg -8.169973 4.135258 -1.653558
LeftLeg 0.880000 -0.000000 -0.000000
LeftFoot -11.678476 10.828419 -9.593487
LeftToeBase 7.402200 -0.000000 -0.000000
RightUpLeg -9.618038 -9.421829 1.838962
RightLeg 4.149800 -0.000000 -0.000000
RightFoot -9.908496 -4.281491 -7.052825
RightToeBase -0.591600 -0.000000 0.000000
6
root -4.807490 32.825736 -1.998896 11.839554 -0.019320 -0.651625
Spine -9.215727 5.154756 1.529377
Head -12.981853 -1.196534 10.911861
LeftShoulder 17.673032 16.044965 27.847330
LeftArm -46.333804 -10.245076 -32.019008
LeftForeArm -38.336631 -6.985427 -8.743100
LeftHand -0.000041 19.656721 0.080786
LeftHandThumb1 30.357831 13.997178 22.438692
RightShoulder -13.924078 -22.401366 -33.621625
RightArm -2.044056 -8.754942 31.939111
RightForeArm 14.411110 -9.695483 33.240534
RightHand 0.000016 -12.366839 11.521968
RightHandThumb1 30.482666 -12.916435 -20.793814
LeftUpLeg -8.214494 4.125962 -1.669727
LeftLeg 0.882600 0.000000 0.000000
LeftFoot -11.662716 10.768545 -9.550558
LeftToeBase 7.394400 -0.000000 -0.000000
RightUpLeg -9.659136 -9.414722 1.828825
RightLeg 4.176400 -0.000000 -0.000000
RightFoot -9.908890 -4.351079 -7.037722
RightToeBase -0.537400 -0.000000 -0.000000
